HIERARCHY
ROOT Hips
{
    OFFSET   0.000000   0.000000   0.000000
    CHANNELS 6 Xposition Yposition Zposition Zrotation Xrotation Yrotation
    JOINT Chest
    {
        OFFSET   0.000000   8.007230   0.000000
        CHANNELS 3 Zrotation Xrotation Yrotation
        JOINT Chest2
        {
            OFFSET   0.000000  22.077100   0.000000
            CHANNELS 3 Zrotation Xrotation Yrotation
            JOINT Neck
            {
                OFFSET   0.000000  23.254800  -0.000021
                CHANNELS 3 Zrotation Xrotation Yrotation
                JOINT Head
                {
                    OFFSET   0.000000  14.370000   1.956610
                    CHANNELS 3 Zrotation Xrotation Yrotation
                    End Site
                    {
                        OFFSET   0.000000  19.566000   0.000000
                    }
                }
            }
            JOINT LeftCollar
            {
                OFFSET   3.911900  19.017000  -0.467063
                CHANNELS 3 Zrotation Xrotation Yrotation
                JOINT LeftShoulder
                {
                    OFFSET  10.383700   0.000000   0.000000
                    CHANNELS 3 Zrotation Xrotation Yrotation
                    JOINT LeftElbow
                    {
                        OFFSET  26.662100   0.001529   0.000325
                        CHANNELS 3 Zrotation Xrotation Yrotation
                        JOINT LeftWrist
                        {
                            OFFSET  28.869000  -0.000011  -0.000096
                            CHANNELS 3 Zrotation Xrotation Yrotation
                            JOINT LeftFinger0
                            {
                                OFFSET   2.044650  -2.323460   3.252850
                                CHANNELS 3 Zrotation Xrotation Yrotation
                                JOINT LeftFinger01
                                {
                                    OFFSET   3.088130   0.000000   0.000000
                                    CHANNELS 3 Zrotation Xrotation Yrotation
                                    JOINT LeftFinger02
                                    {
                                        OFFSET   2.639460   0.000000   0.000000
                                        CHANNELS 3 Zrotation Xrotation Yrotation
                                        End Site
                                        {
                                            OFFSET   2.582190   0.000000   0.000000
                                        }
                                    }
                                }
                            }
                            JOINT LeftFinger1
                            {
                                OFFSET   8.364480   0.000000   3.252850
                                CHANNELS 3 Zrotation Xrotation Yrotation
                                JOINT LeftFinger11
                                {
                                    OFFSET   4.646930   0.000000   0.000000
                                    CHANNELS 3 Zrotation Xrotation Yrotation
                                    JOINT LeftFinger12
                                    {
                                        OFFSET   2.323460   0.000000   0.000000
                                        CHANNELS 3 Zrotation Xrotation Yrotation
                                        End Site
                                        {
                                            OFFSET   2.273050   0.000000   0.000000
                                        }
                                    }
                                }
                            }
                            JOINT LeftFinger2
                            {
                                OFFSET   8.364480   0.000016   1.078090
                                CHANNELS 3 Zrotation Xrotation Yrotation
                                JOINT LeftFinger21
                                {
                                    OFFSET   5.111620   0.000000   0.000000
                                    CHANNELS 3 Zrotation Xrotation Yrotation
                                    JOINT LeftFinger22
                                    {
                                        OFFSET   2.788160   0.000017   0.000000
                                        CHANNELS 3 Zrotation Xrotation Yrotation
                                        End Site
                                        {
                                            OFFSET   2.727660   0.000000   0.000000
                                        }
                                    }
                                }
                            }
                            JOINT LeftFinger3
                            {
                                OFFSET   7.899780   0.000015  -1.078090
                                CHANNELS 3 Zrotation Xrotation Yrotation
                                JOINT LeftFinger31
                                {
                                    OFFSET   4.646920   0.000000   0.000000
                                    CHANNELS 3 Zrotation Xrotation Yrotation
                                    JOINT LeftFinger32
                                    {
                                        OFFSET   2.323470   0.000000   0.000000
                                        CHANNELS 3 Zrotation Xrotation Yrotation
                                        End Site
                                        {
                                            OFFSET   2.273050   0.000000   0.000000
                                        }
                                    }
                                }
                            }
                            JOINT LeftFinger4
                            {
                                OFFSET   7.435090   0.000000  -3.252850
                                CHANNELS 3 Zrotation Xrotation Yrotation
                                JOINT LeftFinger41
                                {
                                    OFFSET   3.717550   0.000000   0.000000
                                    CHANNELS 3 Zrotation Xrotation Yrotation
                                    JOINT LeftFinger42
                                    {
                                        OFFSET   1.858760   0.000000   0.000000
                                        CHANNELS 3 Zrotation Xrotation Yrotation
                                        End Site
                                        {
                                            OFFSET   1.818440   0.000000   0.000000
                                        }
                                    }
                                }
                            }
                        }
                    }
                }
            }
            JOINT RightCollar
            {
                OFFSET  -3.911900  19.017000  -0.467062
                CHANNELS 3 Zrotation Xrotation Yrotation
                JOINT RightShoulder
                {
                    OFFSET -10.383700   0.000015   0.000000
                    CHANNELS 3 Zrotation Xrotation Yrotation
                    JOINT RightElbow
                    {
                        OFFSET -26.662100   0.001341   0.000385
                        CHANNELS 3 Zrotation Xrotation Yrotation
                        JOINT RightWrist
                        {
                            OFFSET -28.869000   0.000025  -0.000080
                            CHANNELS 3 Zrotation Xrotation Yrotation
                            JOINT RightFinger0
                            {
                                OFFSET  -2.044650  -2.323490   3.252850
                                CHANNELS 3 Zrotation Xrotation Yrotation
                                JOINT RightFinger01
                                {
                                    OFFSET  -3.088130   0.000000   0.000000
                                    CHANNELS 3 Zrotation Xrotation Yrotation
                                    JOINT RightFinger02
                                    {
                                        OFFSET  -2.639460   0.000000   0.000000
                                        CHANNELS 3 Zrotation Xrotation Yrotation
                                        End Site
                                        {
                                            OFFSET  -2.582190   0.000000   0.000000
                                        }
                                    }
                                }
                            }
                            JOINT RightFinger1
                            {
                                OFFSET  -8.364480   0.000000   3.252850
                                CHANNELS 3 Zrotation Xrotation Yrotation
                                JOINT RightFinger11
                                {
                                    OFFSET  -4.646930   0.000000   0.000000
                                    CHANNELS 3 Zrotation Xrotation Yrotation
                                    JOINT RightFinger12
                                    {
                                        OFFSET  -2.323470   0.000000   0.000000
                                        CHANNELS 3 Zrotation Xrotation Yrotation
                                        End Site
                                        {
                                            OFFSET  -2.273050   0.000000   0.000000
                                        }
                                    }
                                }
                            }
                            JOINT RightFinger2
                            {
                                OFFSET  -8.364480   0.000000   1.078090
                                CHANNELS 3 Zrotation Xrotation Yrotation
                                JOINT RightFinger21
                                {
                                    OFFSET  -5.111610   0.000000   0.000000
                                    CHANNELS 3 Zrotation Xrotation Yrotation
                                    JOINT RightFinger22
                                    {
                                        OFFSET  -2.788160   0.000000   0.000000
                                        CHANNELS 3 Zrotation Xrotation Yrotation
                                        End Site
                                        {
                                            OFFSET  -2.727660   0.000000   0.000000
                                        }
                                    }
                                }
                            }
                            JOINT RightFinger3
                            {
                                OFFSET  -7.899780   0.000000  -1.078090
                                CHANNELS 3 Zrotation Xrotation Yrotation
                                JOINT RightFinger31
                                {
                                    OFFSET  -4.646920   0.000000   0.000000
                                    CHANNELS 3 Zrotation Xrotation Yrotation
                                    JOINT RightFinger32
                                    {
                                        OFFSET  -2.323470   0.000000   0.000000
                                        CHANNELS 3 Zrotation Xrotation Yrotation
                                        End Site
                                        {
                                            OFFSET  -2.273050   0.000000   0.000000
                                        }
                                    }
                                }
                            }
                            JOINT RightFinger4
                            {
                                OFFSET  -7.435090   0.000000  -3.252850
                                CHANNELS 3 Zrotation Xrotation Yrotation
                                JOINT RightFinger41
                                {
                                    OFFSET  -3.717550   0.000000   0.000000
                                    CHANNELS 3 Zrotation Xrotation Yrotation
                                    JOINT RightFinger42
                                    {
                                        OFFSET  -1.858770   0.000000   0.000000
                                        CHANNELS 3 Zrotation Xrotation Yrotation
                                        End Site
                                        {
                                            OFFSET  -1.818440   0.000000   0.000000
                                        }
                                    }
                                }
                            }
                        }
                    }
                }
            }
        }
    }
    JOINT LeftHip
    {
        OFFSET   9.783010   0.000000   0.000000
        CHANNELS 3 Zrotation Xrotation Yrotation
        JOINT LeftKnee
        {
            OFFSET   0.000070 -41.789100   0.000028
            CHANNELS 3 Zrotation Xrotation Yrotation
            JOINT LeftAnkle
            {
                OFFSET   0.000087 -41.133200  -0.000100
                CHANNELS 3 Zrotation Xrotation Yrotation
                JOINT LeftToe
                {
                    OFFSET   0.000000  -6.358960  14.674500
                    CHANNELS 3 Zrotation Xrotation Yrotation
                    End Site
                    {
                        OFFSET   0.000000   0.000000   3.913200
                    }
                }
            }
        }
    }
    JOINT RightHip
    {
        OFFSET  -9.783020   0.000000   0.000000
        CHANNELS 3 Zrotation Xrotation Yrotation
        JOINT RightKnee
        {
            OFFSET   0.000044 -41.789100  -0.000870
            CHANNELS 3 Zrotation Xrotation Yrotation
            JOINT RightAnkle
            {
                OFFSET  -0.000090 -41.133200  -0.000245
                CHANNELS 3 Zrotation Xrotation Yrotation
                JOINT RightToe
                {
                    OFFSET   0.000000  -6.358960  14.674500
                    CHANNELS 3 Zrotation Xrotation Yrotation
                    End Site
                    {
                        OFFSET   0.000000   0.000000   3.913200
                    }
                }
            }
        }
    }
}
MOTION
Frames: 4
Frame Time:   0.016667
  0.081002  89.403000   2.237420  -2.049500  -3.361940  -0.424708   0.498152   3.017820   0.116472   0.992223   6.036530   0.207054  -4.131150  -1.323710  -0.095587  -6.796690  -2.642930  17.229400  -4.160670   6.767770   9.507110 -76.835000 -40.111600 -14.960600  -0.707767 -31.551100 -13.388900 -15.033900 -69.271400 -14.836100  36.331500  18.640000 -50.222200 -27.350300  -0.001076   0.001325  -8.675120   0.000000  -0.000000 -28.029300  -0.642835   1.212030 -22.938400  -0.005984  -0.011831 -16.056900   0.002856  -0.002169 -28.471600  -3.931400   7.201420 -39.281100   0.003822  -0.005791 -26.161200   0.000429  -0.000683 -26.774400  -4.201900   8.264200 -27.017300  -0.001753  -0.000971 -17.993500  -0.000594  -0.000685 -27.251600  -6.434600  12.362400 -41.922000  -0.004064   0.012860 -27.920100   0.001475   0.000872   1.918180  10.874800   7.183100  67.945200 -53.928400  17.361500  -8.335910 -33.891700   0.923956  -1.016140 -68.061200  11.031300 -38.579700  21.021600  60.173300  18.453700   0.002576  -0.000743   4.226800  -0.002310   0.003393  25.945600   0.588008   1.204840  21.233600  -0.000139   0.000087  14.863500   0.006480   0.000070  27.541000  -0.755504  -1.446780  29.442000   0.000664   0.008623  19.608400   0.008079   0.004935  27.993200  -2.407420  -4.516100  32.575200   0.000219   0.006387  21.695100   0.000832   0.004556  31.791300  -2.699810  -4.344790  47.841100   0.000924   0.004845  31.862200   0.004992  -0.004282   4.289140   6.062650  -2.830620   0.217530   0.686590   9.841970  -2.555290  -4.176600   0.041901   0.000000   0.000000   0.000000   1.333320   3.560870  -5.191710  -1.577470   5.547710 -11.646900   1.368590  -5.226750   2.263280  -0.000000   0.000000  -0.000000
  0.107730  89.399400   2.213110  -2.045640  -3.381720  -0.431325   0.487210   3.028010   0.124559   0.969857   6.056970   0.223757  -4.306800  -1.383230  -0.104152  -7.086650  -2.758030  17.409600  -4.209220   6.768080   9.557700 -76.932200 -40.146300 -14.780700  -0.923612 -31.444300 -14.277100 -17.122000 -69.120600 -16.671600  36.324700  18.349100 -50.338300 -26.984800  -0.004217   0.005122  -8.492390   0.000000  -0.000000 -27.438100  -0.608730   1.181320 -22.453700  -0.006028  -0.004833 -15.717600   0.002881  -0.001064 -28.403800  -3.970580   7.295390 -38.334800   0.003940  -0.005785 -25.531000   0.000422  -0.000699 -26.369200  -4.129330   8.265660 -26.668300  -0.001692  -0.001039 -17.761100  -0.000593  -0.000105 -26.910600  -6.424430  12.427700 -41.416400  -0.003985   0.013136 -27.583300   0.001586   0.000873   1.913220  10.902700   7.209240  67.945900 -53.652800  17.105900  -8.279550 -33.883600   1.604590   3.013850 -67.805400  14.597700 -38.536100  21.297300  60.657300  18.167700   0.002570  -0.000664   4.083850  -0.002310   0.003395  25.701800   0.604204   1.253500  21.034000  -0.000155   0.000095  14.723800   0.006476   0.000071  27.513500  -0.755381  -1.446100  29.304400   0.000658   0.008655  19.516700   0.008108   0.004977  27.957200  -2.410440  -4.527110  32.328700   0.000211   0.006416  21.530900   0.000818   0.003925  31.599400  -2.691180  -4.362680  47.552500   0.000910   0.004842  31.670000   0.005018  -0.004270   4.267330   6.070620  -2.836680   0.215865   0.681500   9.853270  -2.540370  -4.163940   0.043562   0.000000   0.000000   0.000000   1.311740   3.555980  -5.194470  -1.581820   5.558860 -11.664700   1.387400  -5.211280   2.292360  -0.000000   0.000000  -0.000000
  0.134690  89.395000   2.189170  -2.043110  -3.400060  -0.430926   0.480442   3.034000   0.130140   0.955984   6.069000   0.235252  -4.493440  -1.438880  -0.113107  -7.394810  -2.864410  17.581700  -4.229580   6.766820   9.657940 -77.105500 -40.177700 -14.629600  -1.155520 -31.431300 -15.182600 -18.926200 -68.977300 -18.341500  36.877500  19.002000 -50.278000 -26.225800  -0.011472   0.013689  -8.112870   0.000000   0.000000 -26.432200  -0.563856   1.134060 -21.629900  -0.006074  -0.013419 -15.141000   0.002903   0.000027 -28.260500  -4.041190   7.471480 -36.589600   0.004052  -0.005784 -24.368700   0.000411  -0.000708 -25.425900  -3.932410   8.204080 -25.712700  -0.001641  -0.001106 -17.124700  -0.000593   0.000483 -25.896800  -6.189400  12.438900 -39.865600  -0.003907   0.013446 -26.550400   0.001689   0.000871   1.906120  10.915500   7.232480  67.935100 -53.473900  16.865200  -8.208560 -33.904600   2.275550   6.727960 -67.465800  17.817200 -38.579500  21.668300  61.072900  17.856800   0.002559  -0.000660   3.928440  -0.002308   0.003404  25.364200   0.623153   1.315300  20.758400  -0.000163   0.000114  14.530900   0.006465   0.000075  27.440900  -0.769613  -1.481780  28.962600   0.000648   0.008689  19.289000   0.008140   0.005021  27.884600  -2.418500  -4.563430  31.869900   0.000205   0.006444  21.225400   0.000804   0.003337  31.267100  -2.687830  -4.422730  47.055600   0.000892   0.004843  31.339100   0.005040  -0.004266   4.246210   6.072210  -2.837020   0.214245   0.685586   9.852030  -2.525810  -4.155000   0.046323  -0.000000   0.000000  -0.000000   1.290100   3.544700  -5.189580  -1.583160   5.576290 -11.689300   1.402270  -5.196770   2.313650   0.000000   0.000000   0.000000
  0.160830  89.391800   2.165650  -2.041320  -3.419350  -0.428081   0.469739   3.038910   0.135431   0.934239   6.078830   0.246388  -4.676320  -1.490050  -0.121926  -7.696770  -2.961470  17.740600  -4.249770   6.765160   9.757270 -77.317200 -40.240800 -14.488900  -1.436600 -31.508300 -16.222000 -21.252400 -68.834200 -20.511400  37.429400  19.658300 -50.226100 -25.691600  -0.016637   0.019783  -7.845810   0.000000   0.000000 -25.746500  -0.510338   1.059070 -21.067800  -0.006099  -0.022004 -14.747500   0.002925   0.001137 -28.159400  -4.089170   7.592720 -35.393500   0.004154  -0.005784 -23.572100   0.000400  -0.000718 -24.752700  -3.789450   8.143120 -25.025600  -0.001591  -0.001172 -16.667100  -0.000592   0.001100 -25.161300  -5.961740  12.450500 -38.726100  -0.003828   0.013624 -25.791500   0.001787   0.000868   1.899710  10.927000   7.252940  67.982900 -53.411000  16.668900  -8.115490 -33.921200   2.980780   9.871640 -67.121000  20.519100 -38.663900  22.023400  61.420300  17.666800   0.002548  -0.000659   3.833410  -0.002306   0.003414  25.098900   0.644312   1.379700  20.541800  -0.000168   0.000136  14.379300   0.006453   0.000084  27.353700  -0.783845  -1.517460  28.562600   0.000637   0.008723  19.022600   0.008172   0.005065  27.797800  -2.423730  -4.588830  31.343600   0.000202   0.006474  20.874900   0.000789   0.002795  30.894300  -2.678730  -4.465450  46.498000   0.000876   0.004845  30.967700   0.005060  -0.004263   4.226630   6.073800  -2.837080   0.211275   0.689683   9.845640  -2.510550  -4.144540   0.048126  -0.000000   0.000000   0.000000   1.269310   3.535520  -5.179890  -1.583940   5.595160 -11.718200   1.416550  -5.182830   2.328140   0.000000   0.000000   0.000000
